<?xml version="1.0" encoding="UTF-8" standalone="no"?>
<svg
	xmlns:dc="http://purl.org/dc/elements/1.1/"
	xmlns:cc="http://creativecommons.org/ns#"
	xmlns:rdf="http://www.w3.org/1999/02/22-rdf-syntax-ns#"
	xmlns:svg="http://www.w3.org/2000/svg"
	xmlns="http://www.w3.org/2000/svg"
	xmlns:xlink="http://www.w3.org/1999/xlink"
	id="sharingan"
	width="300"
	height="300">
	<defs
		id="defs">
		<radialGradient
			id="gr">
			<stop
				offset="0"
				style="stop-color:#660000; stop-opacity: 1;"
				id="st1" />
			<stop
				style="stop-color:#c30000; stop-opacity: 1;"
				offset="0.5"
				id="st2"/>
			<stop
				style="stop-color:#a00000; stop-opacity: 1;"
				offset="1"
				id="st3"/>
		</radialGradient>
	</defs>
	<circle
		style="fill: url(#gr); stroke:#000; stroke-width:10;"
		cx="150"
		cy="150"
		r="145"
		id="iris" />
	<path
		style="fill:none; stroke:#000; stroke-width:10"
		d="M 155.5,150 155.5,144 A 11.5,11.5 0 0 0 144,133 23,23 0 0 0 121.5,156 34.5,34.5 0 0 0 156,190 46,46 0 0 0 201.5,144 57.5,57.5 0 0 0 144,87 69,69 0 0 0 75.5,156 80.5,80.5 0 0 0 156,236 92,92 0 0 0 247.5,144 103.5,103.5 0 0 0 144,41 115,115 0 0 0 29.5,156 126.5,126.5 0 0 0 156,282 139,139 0 0 0 294.5,143"
		id="spiral" />
	<circle
		style="fill:#000;"
		cx="150"
		cy="150"
		r="10.5"
		id="center"/>
</svg>
