<?xml version="1.0" encoding="UTF-8"?>
<!DOCTYPE svg PUBLIC "-//W3C//DTD SVG 1.1//EN" "http://www.w3.org/Graphics/SVG/1.1/DTD/svg11.dtd">
<!-- Creator: CorelDRAW 2020 (64-Bit) -->
<svg xmlns="http://www.w3.org/2000/svg" xml:space="preserve" width="80mm" height="80mm" version="1.1" style="shape-rendering:geometricPrecision; text-rendering:geometricPrecision; image-rendering:optimizeQuality; fill-rule:evenodd; clip-rule:evenodd" viewBox="0 0 8000 8000" xmlns:xlink="http://www.w3.org/1999/xlink" xmlns:xodm="http://www.corel.com/coreldraw/odm/2003">
    <defs>
        <style type="text/css">
            <![CDATA[
            .str0 {
                stroke: black;
                stroke-width: 264;
                stroke-miterlimit: 23
            }

            .fil2 {
                fill: #00A0E3;
                fill-rule: nonzero
            }

            .fil1 {
                fill: black;
                fill-rule: nonzero
            }

            .fil0 {
                fill: url(#id0);
                fill-rule: nonzero
            }

            ]]>
        </style>
        <radialGradient id="id0" gradientUnits="userSpaceOnUse" gradientTransform="1 -0 -0 1 0 0)" cx="3992.58" cy="4007.42" r="3836.46" fx="3992.58" fy="4007.42">
            <stop offset="0" style="stop-opacity:1; stop-color:#660000" />
            <stop offset="0.501961" style="stop-opacity:1; stop-color:#C30000" />
            <stop offset="1" style="stop-opacity:1; stop-color:#A00000" />
        </radialGradient>
    </defs>
    <g id="Слой_x0020_1">
        <metadata id="CorelCorpID_0Corel-Layer" />
        <g>
            <circle class="fil0 str0" cx="3992.58" cy="4007.42" r="3836.46" />
            <circle id="centro" class="fil1" cx="3992.58" cy="4007.42" r="591.45" />
            <path id="path44" class="fil1" d="M3002.6 6838.69c-27.71,-1.52 -65.73,-4.39 -84.5,-6.37 -18.77,-1.98 -55.33,-5.12 -81.25,-6.99 -25.92,-1.87 -59.56,-5.56 -74.75,-8.2 -15.19,-2.65 -42.23,-6.3 -60.08,-8.13 -30.55,-3.12 -80.49,-11.06 -139.8,-22.24 -14.3,-2.69 -39.16,-7.17 -55.25,-9.94 -16.09,-2.77 -40.13,-7.94 -53.43,-11.49 -13.3,-3.55 -27.65,-6.45 -31.9,-6.45 -4.25,0 -21.89,-3.59 -39.2,-7.98 -17.31,-4.39 -49.03,-11.99 -70.48,-16.89 -21.45,-4.9 -49.97,-11.8 -63.38,-15.34 -13.41,-3.54 -30.96,-7.74 -39,-9.33 -15.35,-3.04 -54.22,-13 -92.63,-23.75 -30.03,-8.4 -69.92,-18.81 -95.03,-24.8 -11.16,-2.66 -25.05,-6.87 -30.88,-9.36 -5.83,-2.48 -16.44,-5.58 -23.59,-6.86 -7.15,-1.29 -21.78,-5.22 -32.5,-8.73 -10.73,-3.51 -34.86,-10.97 -53.63,-16.56 -18.77,-5.59 -42.9,-12.96 -53.63,-16.37 -10.73,-3.41 -34.86,-10.94 -53.63,-16.75 -18.77,-5.8 -41.44,-13.34 -50.38,-16.75 -8.94,-3.41 -21.37,-7.73 -27.63,-9.6 -6.26,-1.87 -26,-8.75 -43.88,-15.29 -17.88,-6.55 -39.12,-13.87 -47.2,-16.27 -8.08,-2.4 -17.59,-6.06 -21.13,-8.13 -3.53,-2.08 -14.47,-6.61 -24.3,-10.09 -9.83,-3.47 -28.11,-10.36 -40.63,-15.3 -12.51,-4.94 -30.64,-11.84 -40.28,-15.33 -9.64,-3.49 -19.15,-7.65 -21.13,-9.25 -1.98,-1.6 -9.45,-4.82 -16.6,-7.15 -7.15,-2.33 -18.1,-7.02 -24.33,-10.41 -6.23,-3.39 -12.54,-6.16 -14.02,-6.16 -2.4,0 -17.7,-6.88 -59.16,-26.59 -70.92,-33.73 -197.75,-100.26 -224.34,-117.68 -24.89,-16.31 -34.05,-21.92 -35.82,-21.92 -1.05,0 -6.71,-3.74 -12.56,-8.31 -5.86,-4.57 -11.53,-8.31 -12.61,-8.31 -2.74,0 -74.34,-50.92 -99.81,-70.99 -102.33,-80.61 -189.52,-177.83 -231.46,-258.08 -4.3,-8.23 -9.43,-17.95 -11.39,-21.61 -12.67,-23.55 -33.32,-76.48 -38.26,-98.06 -2.3,-10.05 -6.85,-28 -10.1,-39.89 -4.96,-18.09 -5.89,-33.78 -5.75,-96.39 0.09,-41.13 1.72,-81.52 3.61,-89.75 21.15,-91.94 35.3,-131.3 78.86,-219.38 24.44,-49.42 43.94,-86.61 62.99,-120.12 3.78,-6.65 13.89,-24.6 22.47,-39.89 8.58,-15.29 19.86,-34.52 25.07,-42.75 5.21,-8.23 11.94,-19.45 14.96,-24.93 11.41,-20.77 85,-134.96 117.82,-182.82 12.54,-18.28 28.37,-41.43 35.18,-51.45 19.77,-29.07 107.6,-148.76 130.87,-178.35 11.7,-14.87 28.17,-35.95 36.6,-46.83 25.74,-33.23 109.33,-134.3 128.81,-155.76 10.1,-11.12 38.84,-43.64 63.87,-72.25 55.78,-63.78 211.2,-222.13 273.16,-278.3 25.11,-22.76 52.9,-48 61.75,-56.07 18.34,-16.72 120.08,-103.08 139.65,-118.54 68.06,-53.77 99.47,-77.91 125.08,-96.12 6.26,-4.45 20.88,-14.95 32.5,-23.34 21.16,-15.27 124.86,-85.87 146.25,-99.56 30.31,-19.4 37.74,-24.01 42.25,-26.2 2.68,-1.3 12.92,-7.45 22.75,-13.66 17.89,-11.3 118.23,-69.93 143.96,-84.12 7.52,-4.14 28.29,-15.66 46.17,-25.6 17.88,-9.94 72.72,-38.47 121.88,-63.4 49.16,-24.93 91.94,-46.69 95.07,-48.36 3.13,-1.66 8.25,-4.38 11.38,-6.05 3.13,-1.67 14.46,-7.03 25.19,-11.93 10.73,-4.9 25.35,-11.63 32.5,-14.97 7.15,-3.34 25.43,-11.56 40.63,-18.26 26.81,-11.83 32.59,-14.46 72.39,-32.87 10.32,-4.77 20.58,-8.68 22.8,-8.68 2.22,0 9.14,-2.77 15.37,-6.16 6.23,-3.39 17.18,-8.07 24.33,-10.4 7.15,-2.33 14.62,-5.55 16.6,-7.15 1.98,-1.6 11.49,-5.77 21.13,-9.28 18.72,-6.8 61.36,-22.75 90.65,-33.89 9.83,-3.74 24.46,-9.02 32.5,-11.72 8.04,-2.7 21.94,-7.64 30.88,-10.96 23.89,-8.88 55.63,-19.51 79.63,-26.67 11.62,-3.46 34.29,-10.3 50.38,-15.19 16.09,-4.89 37.29,-10.99 47.13,-13.55 9.83,-2.57 25.92,-7.13 35.75,-10.14 9.83,-3.01 29.58,-8.04 43.88,-11.17 14.3,-3.14 35.51,-8.01 47.13,-10.83 41.66,-10.1 83.16,-18.81 99.13,-20.8 8.94,-1.12 32.82,-4.99 53.07,-8.62 38.45,-6.88 50.93,-7.08 50.93,-0.79 0,2.06 -22.7,19.32 -50.46,38.36 -27.75,19.04 -60.35,42.03 -72.43,51.1 -45.09,33.83 -95.38,72.86 -111.12,86.25 -8.94,7.6 -26.49,21.86 -39,31.68 -64.17,50.37 -186.96,163.35 -276.31,254.22 -92.76,94.34 -203.12,220.25 -270.72,308.84 -23.81,31.2 -90.93,122.72 -98.94,134.91 -3.01,4.57 -9.6,14.29 -14.66,21.61 -12.75,18.44 -61.98,93.72 -71.19,108.86 -4.17,6.86 -11.24,18.45 -15.71,25.76 -34.34,56.2 -30.04,48.81 -64.94,111.35 -14.68,26.31 -45.14,84.52 -66.96,127.97 -1.38,2.74 -10.76,22.93 -20.86,44.87 -10.09,21.94 -21.12,45.87 -24.51,53.18 -3.39,7.31 -10.64,24.51 -16.11,38.23 -5.48,13.71 -12.05,29.42 -14.61,34.9 -9.58,20.54 -50.53,131.13 -57.24,154.56 -1.83,6.4 -6.04,19.11 -9.36,28.25 -3.32,9.14 -9.82,29.7 -14.46,45.69 -4.63,15.99 -12.04,41.42 -16.46,56.51 -10.2,34.84 -16.82,60.41 -24.29,93.92 -3.26,14.63 -8.16,36.31 -10.89,48.2 -11.9,51.89 -28.65,146.04 -34.89,196.11 -11.59,93 -16.11,136.24 -17.9,171.18l-2.05 39.89 14.48 20.08c97.4,135.05 313.26,328.6 497.23,445.82 6.7,4.27 18.4,11.76 26,16.65 7.6,4.89 19.3,12.37 26,16.62 6.7,4.25 17.67,11.31 24.38,15.68 12.7,8.28 93.91,54.24 108.07,61.16 4.47,2.18 10.32,5.38 13,7.11 2.68,1.73 9.26,5.2 14.63,7.72 5.36,2.52 12.68,6.32 16.25,8.44 3.58,2.12 11.62,6.1 17.88,8.85 6.26,2.75 13.57,6.4 16.25,8.11 5.54,3.53 29.35,14.56 65,30.13 13.41,5.85 30.23,13.45 37.38,16.89 7.15,3.44 18.85,8.44 26,11.11 7.15,2.67 23.24,8.89 35.75,13.81 12.51,4.93 30.79,11.86 40.63,15.4 9.83,3.54 22.48,8.6 28.12,11.25 5.63,2.65 12.21,4.88 14.63,4.96 2.41,0.08 10.23,2.44 17.38,5.26 16.56,6.51 59.72,20.33 82.88,26.54 9.83,2.64 27.38,7.74 39,11.35 27.36,8.5 70.4,19.36 99.13,25.02 12.51,2.46 27.87,6.08 34.13,8.03 6.26,1.96 25.32,5.72 42.37,8.37 17.05,2.65 41.18,6.96 53.63,9.58 12.45,2.62 33.6,5.79 47,7.05 13.41,1.25 43.39,5.04 66.63,8.42 113.11,16.44 407.8,15.53 513.49,-1.58 16.1,-2.6 40.24,-5.67 53.65,-6.8 13.41,-1.13 38.27,-4.88 55.25,-8.33 16.98,-3.45 39.65,-7.22 50.38,-8.38 10.73,-1.16 29.74,-4.84 42.25,-8.18 12.51,-3.34 33.57,-7.76 46.79,-9.81 13.22,-2.06 25.19,-4.47 26.6,-5.36 1.41,-0.89 18.38,-5.31 37.71,-9.83 44.4,-10.37 117.82,-31.1 176.53,-49.83 59.41,-18.96 67.53,-21.68 94.25,-31.6 15.19,-5.64 37.13,-13.77 48.75,-18.06 11.62,-4.29 31.36,-11.83 43.88,-16.75 12.51,-4.92 30.45,-11.74 39.86,-15.15 9.41,-3.41 20.34,-8.52 24.29,-11.35 3.95,-2.83 9.41,-5.15 12.14,-5.17 2.73,-0.02 12.28,-3.71 21.22,-8.21 8.94,-4.5 17.44,-8.22 18.89,-8.28 1.45,-0.05 12.42,-4.8 24.38,-10.53 11.95,-5.74 29.78,-14.11 39.61,-18.62 40.99,-18.79 53.21,-24.76 112.13,-54.75 77.36,-39.38 106.79,-55.29 173.02,-93.5 29.02,-16.74 57,-32.79 62.18,-35.65 5.18,-2.86 26.07,-15.83 46.42,-28.83 20.35,-12.99 41.16,-24.69 46.24,-25.99 8.89,-2.28 9.08,-2.07 5.22,5.56 -9.81,19.39 -177.3,170.69 -268.19,242.27 -81.66,64.3 -115.2,88.84 -206.26,150.86 -57.93,39.46 -122.63,81.82 -124.97,81.82 -0.62,0 -10.42,5.96 -21.77,13.25 -11.35,7.29 -25.76,16.05 -32.02,19.47 -6.26,3.42 -27.46,15.53 -47.13,26.91 -19.66,11.38 -40.14,22.84 -45.5,25.46 -5.36,2.62 -24.38,12.79 -42.25,22.6 -44.11,24.2 -112.26,58.49 -158.47,79.71 -10.29,4.73 -26.38,12.2 -35.75,16.6 -9.37,4.4 -25.81,11.82 -36.54,16.48 -10.73,4.66 -29.98,13.05 -42.8,18.65 -12.81,5.6 -25.32,10.17 -27.79,10.17 -2.47,0 -6.02,1.56 -7.88,3.46 -3.26,3.33 -32.48,15.08 -62.92,25.3 -8.04,2.7 -19.01,7.05 -24.38,9.66 -10.53,5.13 -37.15,14.84 -68.25,24.92 -40.49,13.11 -62.23,20.67 -76.98,26.76 -8.38,3.46 -17.15,6.27 -19.5,6.23 -2.35,-0.02 -16.32,3.77 -31.04,8.44 -57.5,18.25 -124.63,37.31 -151.98,43.15 -10.73,2.29 -29.01,6.56 -40.63,9.49 -45.03,11.35 -67.76,16.53 -97.5,22.23 -16.98,3.25 -42.58,8.24 -56.88,11.07 -96.5,19.15 -184.1,30.76 -342.89,45.46 -85.74,7.94 -313.7,11.58 -406.26,6.49l-0.01 -0.02z" />
            <path id="path44-9" class="fil1" d="M2035.62 1734.44c15.17,-23.24 36.67,-54.73 47.76,-70 11.1,-15.27 32.1,-45.36 46.68,-66.87 14.58,-21.51 34.59,-48.8 44.48,-60.64 9.89,-11.84 26.57,-33.42 37.08,-47.97 17.98,-24.9 49.83,-64.17 89.16,-109.95 9.48,-11.04 25.79,-30.33 36.23,-42.88 10.44,-12.55 26.94,-30.78 36.66,-40.52 9.72,-9.74 19.41,-20.72 21.54,-24.4 2.12,-3.68 14.06,-17.16 26.51,-29.96 12.46,-12.8 34.9,-36.46 49.86,-52.59 14.97,-16.13 35.21,-37.37 44.98,-47.21 9.77,-9.84 22.18,-22.94 27.58,-29.11 10.3,-11.78 38.37,-40.45 66.88,-68.34 22.29,-21.81 51.25,-51.14 68.99,-69.9 7.88,-8.33 18.47,-18.26 23.54,-22.06 5.06,-3.8 13.05,-11.45 17.74,-17 4.69,-5.55 15.41,-16.25 23.81,-23.78 8.41,-7.53 26.93,-24.7 41.16,-38.16 14.23,-13.46 32.68,-30.67 40.99,-38.26 8.32,-7.58 26.91,-24.71 41.32,-38.07 14.41,-13.35 32.27,-29.22 39.7,-35.25 7.43,-6.03 17.38,-14.64 22.12,-19.13 4.74,-4.49 20.57,-18.14 35.18,-30.35 14.61,-12.21 31.57,-26.94 37.69,-32.74 6.12,-5.8 14.04,-12.2 17.61,-14.23 3.57,-2.02 12.96,-9.23 20.89,-16 7.92,-6.78 23.03,-19.17 33.56,-27.53 10.54,-8.37 25.57,-20.61 33.41,-27.22 7.84,-6.6 16.2,-12.75 18.57,-13.67 2.37,-0.92 8.9,-5.78 14.49,-10.8 5.6,-5.03 15.13,-12.16 21.18,-15.87 6.05,-3.7 11.6,-7.78 12.34,-9.06 1.2,-2.08 14.81,-11.89 52.61,-37.93 64.67,-44.56 185.7,-121.13 214.09,-135.44 26.57,-13.4 36.01,-18.53 36.89,-20.06 0.53,-0.91 6.59,-3.94 13.48,-6.73 6.89,-2.79 12.96,-5.83 13.5,-6.76 1.37,-2.37 81.27,-38.92 111.38,-50.94 120.97,-48.31 248.77,-75.22 339.24,-71.41 9.27,0.39 20.26,0.81 24.41,0.94 26.73,0.8 82.9,9.39 104.05,15.9 9.86,3.04 27.68,8.07 39.6,11.19 18.14,4.75 32.2,11.79 86.35,43.22 35.58,20.65 69.74,42.25 75.92,48 69.04,64.28 96.06,96.22 150.56,177.98 30.58,45.87 53.04,81.36 72.54,114.61 3.87,6.6 14.36,24.33 23.31,39.4 8.95,15.07 19.97,34.46 24.49,43.09 4.52,8.63 10.87,20.07 14.11,25.42 12.28,20.27 74.37,141.1 99.41,193.45 9.56,20 21.7,45.28 26.97,56.19 15.29,31.66 75.03,167.56 89.02,202.52 7.03,17.57 17.05,42.37 22.26,55.11 15.91,38.91 61.65,161.83 70.48,189.43 4.58,14.31 18.37,55.46 30.64,91.44 27.34,80.2 86.77,293.97 104.44,375.71 7.16,33.13 15.12,69.81 17.68,81.51 5.31,24.24 29.23,155.53 32.83,180.21 12.54,85.83 17.73,125.1 20.7,156.38 0.72,7.64 2.51,25.56 3.96,39.82 2.65,25.96 11.93,151.07 13.1,176.44 1.65,35.95 1.92,44.69 1.56,49.69 -0.21,2.97 -0.01,14.91 0.45,26.53 0.84,21.15 1.44,137.36 0.87,166.74 -0.16,8.58 -0.58,32.33 -0.91,52.78 -0.33,20.45 -3.05,82.21 -6.03,137.25 -2.99,55.04 -5.53,102.97 -5.65,106.51 -0.13,3.54 -0.33,9.33 -0.45,12.88 -0.13,3.54 -1.14,16.04 -2.26,27.78 -1.12,11.74 -2.6,27.77 -3.28,35.63 -0.68,7.86 -2.71,27.8 -4.5,44.32 -3.16,29.13 -3.77,35.45 -7.73,79.12 -1.02,11.32 -2.77,22.16 -3.88,24.08 -1.11,1.92 -2.17,9.3 -2.35,16.39 -0.19,7.09 -1.6,18.91 -3.15,26.27 -1.55,7.36 -2.5,15.44 -2.11,17.95 0.39,2.51 -0.75,12.83 -2.53,22.93 -3.47,19.62 -10.98,64.51 -15.98,95.45 -1.67,10.38 -4.42,25.69 -6.1,34.01 -1.68,8.32 -4.35,22.82 -5.94,32.22 -4.25,25.13 -10.92,57.94 -16.72,82.29 -2.81,11.79 -8.23,34.84 -12.04,51.22 -3.81,16.38 -9.13,37.79 -11.83,47.59 -2.69,9.8 -6.79,26.01 -9.1,36.03 -2.31,10.02 -7.83,29.63 -12.26,43.59 -4.43,13.95 -10.82,34.75 -14.19,46.23 -12.08,41.13 -25.29,81.42 -31.55,96.25 -3.5,8.3 -12.08,30.92 -19.07,50.27 -13.26,36.74 -19.34,47.65 -24.78,44.51 -1.78,-1.03 -5.38,-29.32 -7.99,-62.87 -2.61,-33.55 -6.23,-73.28 -8.04,-88.28 -6.75,-55.96 -15.41,-119.03 -19.13,-139.35 -2.11,-11.54 -5.69,-33.87 -7.94,-49.62 -11.54,-80.76 -47.99,-243.59 -82.01,-366.4 -35.32,-127.5 -89.18,-286.03 -132.1,-388.87 -15.12,-36.22 -60.82,-140.11 -67.36,-153.14 -2.46,-4.89 -7.58,-15.46 -11.38,-23.5 -9.59,-20.26 -50.17,-100.53 -58.68,-116.08 -3.85,-7.04 -10.36,-18.96 -14.46,-26.48 -31.5,-57.84 -27.25,-50.42 -63.96,-111.92 -15.44,-25.87 -50.62,-81.35 -77.34,-121.98 -1.69,-2.56 -14.48,-20.79 -28.43,-40.5 -13.95,-19.71 -29.16,-41.23 -33.8,-47.82 -4.64,-6.59 -15.91,-21.47 -25.05,-33.07 -9.14,-11.6 -19.45,-25.14 -22.92,-30.1 -13,-18.57 -88.29,-109.33 -105.24,-126.85 -4.63,-4.78 -13.53,-14.79 -19.79,-22.23 -6.26,-7.44 -20.81,-23.36 -32.34,-35.37 -11.53,-12.01 -29.85,-31.14 -40.71,-42.51 -25.07,-26.26 -43.91,-44.77 -69.19,-67.99 -11.03,-10.14 -27.37,-25.22 -36.3,-33.53 -38.99,-36.25 -112.15,-97.83 -152.39,-128.27 -74.75,-56.54 -109.93,-82.07 -139.3,-101.09l-33.52 -21.72 -24.63 2.5c-165.66,16.83 -441.2,107 -634.7,207.7 -7.05,3.67 -19.39,10.06 -27.42,14.19 -8.03,4.14 -20.36,10.53 -27.39,14.21 -7.04,3.68 -18.63,9.65 -25.77,13.27 -13.52,6.86 -93.93,54.21 -107,63.01 -4.12,2.78 -9.82,6.24 -12.66,7.7 -2.84,1.46 -9.14,5.42 -14,8.8 -4.86,3.38 -11.81,7.82 -15.43,9.85 -3.62,2.04 -11.09,7.01 -16.61,11.05 -5.51,4.04 -12.33,8.55 -15.15,10.02 -5.83,3.03 -27.29,18.14 -58.59,41.23 -11.77,8.68 -26.76,19.45 -33.32,23.92 -6.55,4.47 -16.73,12.11 -22.62,16.96 -5.89,4.86 -19.32,15.68 -29.84,24.05 -10.52,8.37 -25.66,20.74 -33.65,27.48 -7.98,6.74 -18.69,15.17 -23.8,18.73 -5.11,3.56 -10.33,8.14 -11.61,10.19 -1.27,2.05 -7.23,7.64 -13.25,12.43 -13.92,11.09 -47.47,41.55 -64.42,58.5 -7.2,7.2 -20.4,19.84 -29.33,28.1 -21.04,19.45 -51.97,51.29 -71.23,73.34 -8.39,9.6 -19.2,21.1 -24.02,25.54 -4.82,4.44 -17.62,19.07 -28.44,32.51 -10.82,13.44 -26.62,32.18 -35.11,41.65 -8.49,9.47 -21.82,26.2 -29.61,37.18 -7.79,10.98 -26.06,35.05 -40.61,53.49 -70.79,89.73 -217.35,345.4 -255.38,445.49 -5.8,15.25 -15.21,37.69 -20.94,49.86 -5.72,12.18 -14.91,35.58 -20.41,52.01 -5.51,16.43 -13.57,37.95 -17.93,47.82 -4.36,9.87 -10.67,28.18 -14.04,40.68 -3.36,12.51 -10.07,32.95 -14.9,45.43 -4.83,12.48 -8.72,24.06 -8.66,25.72 0.07,1.66 -4.59,18.57 -10.34,37.57 -13.22,43.64 -31.98,117.59 -45.11,177.79 -13.29,60.93 -14.99,69.32 -19.76,97.43 -2.71,15.98 -6.64,39.04 -8.74,51.25 -2.09,12.21 -5.44,33.08 -7.43,46.37 -1.99,13.3 -5.06,32.24 -6.81,42.1 -1.75,9.86 -2.79,21.87 -2.32,26.71 0.48,4.83 -0.24,10.73 -1.59,13.1 -1.35,2.38 -2.93,12.49 -3.5,22.48 -0.58,9.99 -1.6,19.21 -2.28,20.5 -0.68,1.29 -2.06,13.16 -3.07,26.38 -1.01,13.22 -2.67,32.85 -3.68,43.61 -4.22,44.89 -5.17,58.46 -8.65,124.48 -4.57,86.68 -5.52,120.13 -5.54,196.59 -0.01,33.5 -0.11,65.76 -0.22,71.67 -0.11,5.91 0.68,30.49 1.76,54.61 1.08,24.12 0.8,47.99 -0.61,53.04 -2.47,8.84 -2.75,8.9 -7.42,1.74 -11.89,-18.2 -59.17,-238.89 -75.71,-353.39 -14.86,-102.87 -19.34,-144.18 -27.52,-254.06 -5.21,-69.9 -9.54,-147.11 -8.37,-149.14 0.31,-0.54 0.04,-12 -0.59,-25.48 -0.63,-13.47 -1.02,-30.33 -0.85,-37.46 0.17,-7.13 0.28,-31.55 0.26,-54.27 -0.02,-22.72 0.29,-46.18 0.7,-52.13 0.41,-5.96 1.11,-27.51 1.55,-47.89 1.09,-50.3 5.48,-126.46 10.2,-177.09 1.05,-11.28 2.63,-28.95 3.5,-39.26 0.87,-10.32 2.67,-28.26 4,-39.88 1.33,-11.62 3.69,-32.49 5.25,-46.38 1.56,-13.89 3.85,-27.01 5.08,-29.15 1.24,-2.14 1.66,-5.99 0.94,-8.55 -1.26,-4.49 3.18,-35.67 9.55,-67.14 1.68,-8.32 3.4,-19.99 3.82,-25.94 0.82,-11.68 5.72,-39.59 12.55,-71.57 8.89,-41.62 13.21,-64.22 15.31,-80.05 1.19,-8.98 3.15,-17.99 4.35,-20.01 1.2,-2.02 4.9,-16.02 8.21,-31.1 12.95,-58.93 30.01,-126.59 38.62,-153.2 3.38,-10.43 8.82,-28.4 12.1,-39.93 12.68,-44.67 19.56,-66.95 29.5,-95.56 5.67,-16.33 14.16,-40.99 18.85,-54.79 31.67,-93.14 65.41,-174.81 132.08,-319.68 36,-78.22 146.82,-277.46 197.51,-355.08l0.06 0.01z" />
            <path id="path44-7" class="fil1" d="M6939.52 3449.13c12.54,24.75 29.07,59.12 36.74,76.36 7.67,17.24 23.23,50.48 34.57,73.86 11.34,23.38 24.97,54.36 30.27,68.84 5.31,14.48 15.66,39.72 23,56.1 12.57,28.02 30.66,75.24 50.64,132.19 4.82,13.73 13.38,37.5 19.02,52.82 5.64,15.32 13.19,38.72 16.76,52.01 3.58,13.29 8.24,27.17 10.37,30.85 2.12,3.68 7.83,20.75 12.69,37.94 4.85,17.19 14.13,48.45 20.61,69.48 6.48,21.03 14.77,49.18 18.4,62.56 3.64,13.38 8.77,30.68 11.42,38.44 5.05,14.81 15.85,53.46 25.75,92.09 7.74,30.21 18.67,69.96 26.04,94.7 3.28,10.99 6.58,25.13 7.33,31.42 0.76,6.29 3.39,17.03 5.85,23.87 2.46,6.84 6.37,21.47 8.69,32.51 2.32,11.05 7.93,35.67 12.47,54.72 4.54,19.05 10.23,43.63 12.64,54.63 2.41,10.99 7.95,35.66 12.31,54.81 4.36,19.15 9.17,42.56 10.68,52 1.51,9.45 3.99,22.37 5.5,28.72 1.51,6.35 5.43,26.89 8.69,45.64 3.27,18.75 7.55,40.81 9.51,49.01 1.96,8.2 3.55,18.26 3.52,22.36 -0.03,4.1 1.51,15.84 3.41,26.09 1.91,10.25 5.09,29.53 7.06,42.83 1.98,13.31 5.07,32.45 6.86,42.55 1.8,10.09 2.95,20.41 2.55,22.92 -0.39,2.51 0.56,10.59 2.11,17.95 1.55,7.36 2.97,19.18 3.15,26.27 0.19,7.09 0.94,13.94 1.67,15.22 1.2,2.08 2.89,18.77 6.55,64.53 6.25,78.28 12.05,221.39 10.25,253.13 -1.68,29.71 -1.96,40.45 -1.07,41.98 0.53,0.91 0.11,7.68 -0.92,15.04 -1.03,7.36 -1.43,14.14 -0.89,15.07 1.37,2.37 -6.93,89.84 -11.57,121.93 -18.64,128.92 -59.25,253.05 -107.77,329.49 -4.97,7.84 -10.83,17.14 -13.01,20.67 -14.06,22.75 -49.58,67.1 -65.79,82.16 -7.56,7.02 -20.83,19.93 -29.49,28.69 -13.19,13.34 -26.31,22 -80.61,53.18 -35.67,20.49 -71.46,39.27 -79.53,41.74 -90.19,27.65 -131.36,35.08 -229.42,41.4 -55.02,3.55 -96.98,5.25 -135.52,5.51 -7.65,0.05 -28.25,0.27 -45.78,0.48 -17.53,0.21 -39.83,0.05 -49.56,-0.34 -9.73,-0.4 -22.81,-0.62 -29.07,-0.49 -23.69,0.5 -159.38,-6.14 -217.23,-10.63 -22.1,-1.72 -50.07,-3.85 -62.15,-4.74 -35.06,-2.59 -182.63,-18.8 -219.9,-24.16 -18.73,-2.69 -45.21,-6.42 -58.85,-8.28 -41.65,-5.68 -170.97,-27.53 -199.29,-33.68 -14.68,-3.19 -57.21,-11.82 -94.51,-19.19 -83.12,-16.42 -297.97,-71.84 -377.6,-97.41 -32.27,-10.36 -68.01,-21.81 -79.43,-25.44 -23.64,-7.52 -149.31,-52.45 -172.49,-61.67 -80.6,-32.06 -117.2,-47.19 -145.78,-60.27 -6.98,-3.19 -23.39,-10.61 -36.46,-16.48 -23.81,-10.69 -136.8,-65.2 -159.35,-76.88 -31.95,-16.55 -39.67,-20.68 -43.81,-23.49 -2.47,-1.67 -12.91,-7.46 -23.2,-12.87 -18.73,-9.85 -119.68,-67.43 -144.83,-82.62 -7.35,-4.44 -27.71,-16.67 -45.25,-27.18 -17.54,-10.51 -69.67,-43.75 -115.85,-73.85 -46.17,-30.1 -86.41,-56.27 -89.41,-58.15 -3.01,-1.88 -7.92,-4.95 -10.93,-6.83 -3.01,-1.88 -13.32,-9.01 -22.93,-15.85 -9.6,-6.84 -22.75,-16.14 -29.22,-20.66 -6.47,-4.52 -22.73,-16.25 -36.13,-26.05 -23.65,-17.3 -28.81,-20.99 -64.66,-46.25 -9.29,-6.55 -17.81,-13.48 -18.92,-15.4 -1.11,-1.92 -6.97,-6.53 -13.02,-10.23 -6.05,-3.7 -15.58,-10.84 -21.17,-15.87 -5.6,-5.03 -12.12,-9.88 -14.49,-10.8 -2.37,-0.92 -10.74,-7.06 -18.6,-13.66 -15.25,-12.81 -50.38,-41.77 -74.68,-61.56 -8.16,-6.64 -20.04,-16.67 -26.4,-22.29 -6.36,-5.61 -17.59,-15.18 -24.93,-21.26 -19.64,-16.25 -44.72,-38.42 -62.91,-55.63 -8.81,-8.33 -26.06,-24.55 -38.34,-36.03 -12.28,-11.49 -28.16,-26.8 -35.3,-34.04 -7.14,-7.23 -19.13,-18.88 -26.65,-25.89 -7.52,-7.01 -21.75,-21.6 -31.62,-32.41 -9.87,-10.82 -24.69,-26.75 -32.94,-35.4 -29.58,-31.03 -57.87,-62.61 -67.58,-75.45 -5.44,-7.18 -20.73,-25.93 -34,-41.65 -25.19,-29.86 -31.6,-40.57 -26.15,-43.71 1.78,-1.03 28.08,10 58.45,24.52 30.36,14.51 66.58,31.24 80.47,37.18 51.84,22.14 110.79,46.17 130.25,53.11 11.05,3.94 32.17,12.01 46.94,17.94 75.71,30.39 234.94,80.24 358.32,112.18 128.08,33.16 292.3,65.79 402.82,80.03 38.93,5.02 151.75,17.39 166.3,18.23 5.46,0.32 17.18,1.17 26.04,1.89 22.34,1.82 112.15,6.82 129.87,7.22 8.02,0.19 21.6,0.51 30.16,0.72 65.84,1.64 57.29,1.61 128.9,0.57 30.12,-0.44 95.77,-3.16 144.31,-5.99 3.06,-0.19 25.24,-2.15 49.29,-4.38 24.05,-2.23 50.29,-4.64 58.31,-5.37 8.03,-0.72 26.55,-3.05 41.16,-5.16 14.61,-2.11 31.5,-4.27 37.53,-4.8 22.58,-1.97 138.83,-21.8 162.47,-27.71 6.46,-1.62 19.57,-4.32 29.15,-6.02 9.58,-1.7 30.63,-6.34 46.8,-10.32 16.16,-3.98 41.89,-10.28 57.17,-14 35.28,-8.58 60.73,-15.64 93.48,-25.92 14.3,-4.49 35.53,-11.09 47.18,-14.67 50.89,-15.64 140.8,-48.21 187.28,-67.84 86.34,-36.47 126.04,-54.17 157.2,-70.09l35.57 -18.17 10.15 -22.58c68.26,-151.88 127.94,-435.59 137.48,-653.52 0.35,-7.94 0.99,-21.82 1.42,-30.84 0.43,-9.02 1.06,-22.89 1.39,-30.83 0.33,-7.93 0.96,-20.96 1.39,-28.95 0.82,-15.14 0.02,-108.45 -1.07,-124.17 -0.34,-4.96 -0.5,-11.63 -0.34,-14.81 0.16,-3.19 -0.13,-10.62 -0.62,-16.53 -0.5,-5.9 -0.87,-14.14 -0.82,-18.29 0.05,-4.15 -0.52,-13.11 -1.27,-19.91 -0.75,-6.79 -1.24,-14.95 -1.1,-18.13 0.29,-6.56 -2.06,-32.7 -6.41,-71.36 -1.64,-14.54 -3.46,-32.9 -4.06,-40.81 -0.6,-7.91 -2.12,-20.54 -3.38,-28.07 -1.26,-7.53 -3.92,-24.57 -5.91,-37.87 -1.99,-13.3 -5.13,-32.6 -6.98,-42.88 -1.85,-10.29 -3.79,-23.77 -4.32,-29.97 -0.52,-6.2 -1.88,-13.02 -3.02,-15.14 -1.14,-2.13 -3,-10.09 -4.14,-17.68 -2.64,-17.6 -12.25,-61.88 -18.45,-85.04 -2.64,-9.83 -6.98,-27.59 -9.67,-39.45 -6.32,-27.94 -18.43,-70.65 -27.9,-98.36 -4.12,-12.07 -8.67,-27.18 -10.11,-33.57 -1.43,-6.4 -7.71,-24.79 -13.94,-40.88 -6.23,-16.09 -14.56,-39.15 -18.51,-51.23 -3.95,-12.09 -11.78,-31.99 -17.4,-44.23 -5.62,-12.24 -17.33,-40.1 -26.02,-61.91 -42.32,-106.17 -190.45,-360.93 -258.11,-443.91 -10.3,-12.64 -25.03,-32.02 -32.71,-43.06 -7.68,-11.04 -23.36,-30.7 -34.84,-43.68 -11.48,-12.98 -26.08,-30.73 -32.45,-39.44 -6.37,-8.71 -19.06,-23.33 -28.21,-32.5 -9.15,-9.17 -23.5,-25.19 -31.9,-35.62 -8.39,-10.42 -16.47,-19.58 -17.95,-20.36 -1.47,-0.77 -13.79,-13.26 -27.37,-27.74 -31.18,-33.26 -85.84,-86.49 -131.42,-127.96 -46.13,-41.97 -52.54,-47.64 -74.5,-65.82 -12.48,-10.34 -30.49,-25.27 -40.02,-33.19 -9.53,-7.92 -25.93,-21.25 -36.45,-29.62 -10.52,-8.38 -25.39,-20.5 -33.05,-26.94 -7.66,-6.44 -17.55,-13.36 -21.97,-15.36 -4.42,-2 -9.17,-5.57 -10.55,-7.93 -1.39,-2.35 -9.35,-8.78 -17.71,-14.27 -8.36,-5.49 -15.84,-10.99 -16.62,-12.22 -0.77,-1.23 -10.37,-8.36 -21.31,-15.84 -10.94,-7.48 -27.11,-18.73 -35.93,-24.99 -36.76,-26.1 -48.04,-33.7 -103.48,-69.73 -72.78,-47.3 -101.28,-64.84 -167.48,-103.09 -29.01,-16.76 -56.89,-32.97 -61.96,-36.02 -5.07,-3.05 -26.74,-14.66 -48.17,-25.79 -21.43,-11.13 -41.96,-23.3 -45.63,-27.05 -6.42,-6.56 -6.34,-6.83 2.2,-7.3 21.7,-1.2 236.47,68.2 343.9,111.13 96.52,38.56 134.54,55.35 233.78,103.2 63.14,30.44 132.17,65.29 133.34,67.32 0.31,0.54 10.37,6.04 22.36,12.23 11.99,6.19 26.78,14.28 32.87,17.99 6.09,3.71 27.18,16.02 46.87,27.36 19.69,11.34 39.85,23.34 44.8,26.68 4.95,3.33 23.27,14.71 40.7,25.29 43.02,26.1 106.78,67.98 148.27,97.38 9.24,6.55 23.76,16.75 32.25,22.66 8.5,5.91 23.14,16.44 32.54,23.4 9.4,6.96 26.29,19.44 37.55,27.74 11.25,8.3 21.47,16.84 22.71,18.98 1.24,2.14 4.36,4.43 6.94,5.09 4.52,1.16 29.3,20.59 53.37,41.84 6.36,5.62 15.61,12.94 20.55,16.28 9.7,6.55 31.43,24.75 55.7,46.65 31.6,28.51 49.01,43.56 61.67,53.28 7.18,5.52 14,11.72 15.15,13.77 1.15,2.05 11.42,12.25 22.83,22.67 44.56,40.67 94.63,89.28 113.36,110.05 7.34,8.15 20.18,21.84 28.53,30.44 32.35,33.32 48.2,50.41 68.01,73.32 11.31,13.08 28.42,32.75 38.03,43.72 64.83,74 118.69,144.05 210.81,274.22 49.74,70.28 166.88,265.88 208.75,348.59l0.02 -0.01z" />
            <!-- mini path -->
            <path id="path44-9_0" class="fil2" d="M2035.62 1734.44c284.14,-435.28 763.18,-912.37 1192.3,-1227.45 226.11,-155.78 477.73,-298.83 752.99,-290.4 88.29,2.7 147.27,22.29 230,70.31 115.74,67.18 155.87,120.06 226.48,225.98 369.56,554.37 635.72,1363.95 665.94,2020.73 12.29,267.06 -4.51,480.09 -27.93,739.23 -14.32,158.46 -90.01,530.95 -149.73,672.5 -38.38,90.97 -43.03,145.16 -51.84,31.91 -43.36,-557.31 -273.63,-1255.13 -629.68,-1707.01 -179.16,-227.38 -374.64,-430.18 -618.18,-587.94 -40.06,-25.95 -26.2,-22.46 -58.15,-19.22 -208.92,21.22 -625.42,173.43 -848.94,328.88 -285.49,198.56 -373.94,273.97 -596.64,556.22 -86.7,109.88 -247.38,400.06 -296.73,547.36 -54.71,163.28 -67.55,175.9 -110.98,375.01 -57.67,264.39 -83.69,572.34 -71.83,837.28 9.63,214.96 -71.61,-214.66 -83.74,-298.61 -113.77,-787.43 39.13,-1604.9 476.6,-2274.79l0.06 0.01z" />
        </g>
    </g>
</svg>
